<svg id="SvgjsSvg1382" width="926" height="807" xmlns="http://www.w3.org/2000/svg" version="1.1" xmlns:xlink="http://www.w3.org/1999/xlink" xmlns:svgjs="http://svgjs.com/svgjs"><defs id="SvgjsDefs1383"><marker id="SvgjsMarker1469" markerWidth="16" markerHeight="12" refX="16" refY="6" viewBox="0 0 16 12" orient="auto" markerUnits="userSpaceOnUse" stroke-dasharray="0,0"><path id="SvgjsPath1470" d="M0,2 L14,6 L0,11 L0,2" fill="#323232" stroke="#323232" stroke-width="2"></path></marker><marker id="SvgjsMarker1477" markerWidth="16" markerHeight="12" refX="16" refY="6" viewBox="0 0 16 12" orient="auto" markerUnits="userSpaceOnUse" stroke-dasharray="0,0"><path id="SvgjsPath1478" d="M0,2 L14,6 L0,11 L0,2" fill="#323232" stroke="#323232" stroke-width="2"></path></marker><marker id="SvgjsMarker1485" markerWidth="16" markerHeight="12" refX="16" refY="6" viewBox="0 0 16 12" orient="auto" markerUnits="userSpaceOnUse" stroke-dasharray="0,0"><path id="SvgjsPath1486" d="M0,2 L14,6 L0,11 L0,2" fill="#323232" stroke="#323232" stroke-width="2"></path></marker><marker id="SvgjsMarker1489" markerWidth="16" markerHeight="12" refX="16" refY="6" viewBox="0 0 16 12" orient="auto" markerUnits="userSpaceOnUse" stroke-dasharray="0,0"><path id="SvgjsPath1490" d="M0,2 L14,6 L0,11 L0,2" fill="#323232" stroke="#323232" stroke-width="2"></path></marker><marker id="SvgjsMarker1503" markerWidth="16" markerHeight="12" refX="16" refY="6" viewBox="0 0 16 12" orient="auto" markerUnits="userSpaceOnUse" stroke-dasharray="0,0"><path id="SvgjsPath1504" d="M0,2 L14,6 L0,11 L0,2" fill="#323232" stroke="#323232" stroke-width="2"></path></marker><marker id="SvgjsMarker1513" markerWidth="16" markerHeight="12" refX="16" refY="6" viewBox="0 0 16 12" orient="auto" markerUnits="userSpaceOnUse" stroke-dasharray="0,0"><path id="SvgjsPath1514" d="M0,2 L14,6 L0,11 L0,2" fill="#323232" stroke="#323232" stroke-width="2"></path></marker><marker id="SvgjsMarker1535" markerWidth="16" markerHeight="12" refX="16" refY="6" viewBox="0 0 16 12" orient="auto" markerUnits="userSpaceOnUse" stroke-dasharray="0,0"><path id="SvgjsPath1536" d="M0,2 L14,6 L0,11 L0,2" fill="#323232" stroke="#323232" stroke-width="2"></path></marker><marker id="SvgjsMarker1539" markerWidth="16" markerHeight="12" refX="16" refY="6" viewBox="0 0 16 12" orient="auto" markerUnits="userSpaceOnUse" stroke-dasharray="0,0"><path id="SvgjsPath1540" d="M0,2 L14,6 L0,11 L0,2" fill="#323232" stroke="#323232" stroke-width="2"></path></marker><marker id="SvgjsMarker1543" markerWidth="16" markerHeight="12" refX="16" refY="6" viewBox="0 0 16 12" orient="auto" markerUnits="userSpaceOnUse" stroke-dasharray="0,0"><path id="SvgjsPath1544" d="M0,2 L14,6 L0,11 L0,2" fill="#323232" stroke="#323232" stroke-width="2"></path></marker><marker id="SvgjsMarker1553" markerWidth="16" markerHeight="12" refX="16" refY="6" viewBox="0 0 16 12" orient="auto" markerUnits="userSpaceOnUse" stroke-dasharray="0,0"><path id="SvgjsPath1554" d="M0,2 L14,6 L0,11 L0,2" fill="#323232" stroke="#323232" stroke-width="2"></path></marker><marker id="SvgjsMarker1581" markerWidth="16" markerHeight="12" refX="16" refY="6" viewBox="0 0 16 12" orient="auto" markerUnits="userSpaceOnUse" stroke-dasharray="0,0"><path id="SvgjsPath1582" d="M0,2 L14,6 L0,11 L0,2" fill="#323232" stroke="#323232" stroke-width="2"></path></marker><marker id="SvgjsMarker1591" markerWidth="16" markerHeight="12" refX="16" refY="6" viewBox="0 0 16 12" orient="auto" markerUnits="userSpaceOnUse" stroke-dasharray="0,0"><path id="SvgjsPath1592" d="M0,2 L14,6 L0,11 L0,2" fill="#323232" stroke="#323232" stroke-width="2"></path></marker></defs><rect id="SvgjsRect1384" width="926" height="807" fill="#ffffff"></rect><g id="SvgjsG1385" transform="translate(25,25)"><path id="SvgjsPath1386" d="M 0 4Q 0 0 4 0L 872 0Q 876 0 876 4L 876 43Q 876 47 872 47L 4 47Q 0 47 0 43Z" stroke="rgba(50,50,50,1)" stroke-width="2" fill-opacity="1" fill="#ffffff"></path><g id="SvgjsG1387"><text id="SvgjsText1388" font-family="微软雅黑" text-anchor="middle" font-size="25px" width="856px" fill="#323232" font-weight="400" align="middle" anchor="middle" family="微软雅黑" size="25px" weight="400" font-style="" opacity="1" y="2.25" transform="rotate(0)"><tspan id="SvgjsTspan1389" dy="31" x="438"><tspan id="SvgjsTspan1390" style="text-decoration:;">Kubernetes API Server</tspan></tspan></text></g></g><g id="SvgjsG1391" transform="translate(25,176)"><path id="SvgjsPath1392" d="M 0 0L 354 0L 354 532L 0 532Z" stroke="rgba(50,50,50,1)" stroke-width="2" fill-opacity="1" fill="#ffffff"></path><g id="SvgjsG1393"><text id="SvgjsText1394" font-family="微软雅黑" text-anchor="middle" font-size="13px" width="334px" fill="#323232" font-weight="400" align="middle" anchor="middle" family="微软雅黑" size="13px" weight="400" font-style="" opacity="1" y="256.05" transform="rotate(0)"></text></g></g><g id="SvgjsG1395" transform="translate(25,179)"><path id="SvgjsPath1396" d="M 0 0L 115 0L 115 35L 0 35Z" stroke="none" fill="none"></path><g id="SvgjsG1397"><text id="SvgjsText1398" font-family="微软雅黑" text-anchor="middle" font-size="20px" width="115px" fill="#323232" font-weight="700" align="middle" anchor="middle" family="微软雅黑" size="20px" weight="700" font-style="" opacity="1" y="2" transform="rotate(0)"><tspan id="SvgjsTspan1399" dy="25" x="57.5"><tspan id="SvgjsTspan1400" style="text-decoration:;">Controller</tspan></tspan></text></g></g><g id="SvgjsG1401" transform="translate(67,231)"><path id="SvgjsPath1402" d="M 0 0L 270 0L 270 366L 0 366Z" stroke="rgba(50,50,50,1)" stroke-width="2" fill-opacity="1" fill="#ffffff"></path><g id="SvgjsG1403"><text id="SvgjsText1404" font-family="微软雅黑" text-anchor="middle" font-size="13px" width="250px" fill="#323232" font-weight="400" align="middle" anchor="middle" family="微软雅黑" size="13px" weight="400" font-style="" opacity="1" y="173.05" transform="rotate(0)"></text></g></g><g id="SvgjsG1405" transform="translate(62,231)"><path id="SvgjsPath1406" d="M 0 0L 115 0L 115 35L 0 35Z" stroke="none" fill="none"></path><g id="SvgjsG1407"><text id="SvgjsText1408" font-family="微软雅黑" text-anchor="middle" font-size="20px" width="115px" fill="#323232" font-weight="700" align="middle" anchor="middle" family="微软雅黑" size="20px" weight="700" font-style="" opacity="1" y="2" transform="rotate(0)"><tspan id="SvgjsTspan1409" dy="25" x="57.5"><tspan id="SvgjsTspan1410" style="text-decoration:;">Reflector</tspan></tspan></text></g></g><g id="SvgjsG1411" transform="translate(95,274)"><path id="SvgjsPath1412" d="M 0 0L 214 0L 214 51L 0 51Z" stroke="rgba(50,50,50,1)" stroke-width="2" fill-opacity="1" fill="#ffffff"></path><g id="SvgjsG1413"><text id="SvgjsText1414" font-family="微软雅黑" text-anchor="middle" font-size="13px" width="194px" fill="#323232" font-weight="400" align="middle" anchor="middle" family="微软雅黑" size="13px" weight="400" font-style="" opacity="1" y="15.55" transform="rotate(0)"><tspan id="SvgjsTspan1415" dy="16" x="107"><tspan id="SvgjsTspan1416" style="text-decoration:;">ListAndWatch</tspan></tspan></text></g></g><g id="SvgjsG1417" transform="translate(95,367)"><path id="SvgjsPath1418" d="M 0 0L 214 0L 214 217L 0 217Z" stroke="rgba(50,50,50,1)" stroke-width="2" fill-opacity="1" fill="#ffffff"></path><g id="SvgjsG1419"><text id="SvgjsText1420" font-family="微软雅黑" text-anchor="middle" font-size="13px" width="194px" fill="#323232" font-weight="400" align="middle" anchor="middle" family="微软雅黑" size="13px" weight="400" font-style="" opacity="1" y="98.55" transform="rotate(0)"></text></g></g><g id="SvgjsG1421" transform="translate(95,367)"><path id="SvgjsPath1422" d="M 0 0L 76 0L 76 26L 0 26Z" stroke="none" fill="none"></path><g id="SvgjsG1423"><text id="SvgjsText1424" font-family="微软雅黑" text-anchor="middle" font-size="13px" width="76px" fill="#323232" font-weight="700" align="middle" anchor="middle" family="微软雅黑" size="13px" weight="700" font-style="" opacity="1" y="3.05" transform="rotate(0)"><tspan id="SvgjsTspan1425" dy="16" x="38"><tspan id="SvgjsTspan1426" style="text-decoration:;">DeltaFIFO</tspan></tspan></text></g></g><g id="SvgjsG1427" transform="translate(116,397)"><path id="SvgjsPath1428" d="M 0 0L 172 0L 172 34L 0 34Z" stroke="rgba(50,50,50,1)" stroke-width="2" fill-opacity="1" fill="#ffffff"></path><g id="SvgjsG1429"><text id="SvgjsText1430" font-family="微软雅黑" text-anchor="middle" font-size="13px" width="152px" fill="#323232" font-weight="400" align="middle" anchor="middle" family="微软雅黑" size="13px" weight="400" font-style="" opacity="1" y="7.05" transform="rotate(0)"><tspan id="SvgjsTspan1431" dy="16" x="86"><tspan id="SvgjsTspan1432" style="text-decoration:;">Add，Update，Delete</tspan></tspan></text></g></g><g id="SvgjsG1433" transform="translate(116,497)"><path id="SvgjsPath1434" d="M 0 0L 172 0L 172 20L 0 20Z" stroke="rgba(50,50,50,1)" stroke-width="2" fill-opacity="1" fill="#ffffff"></path><g id="SvgjsG1435"><text id="SvgjsText1436" font-family="微软雅黑" text-anchor="middle" font-size="13px" width="152px" fill="#323232" font-weight="400" align="middle" anchor="middle" family="微软雅黑" size="13px" weight="400" font-style="" opacity="1" y="0.050000000000000044" transform="rotate(0)"><tspan id="SvgjsTspan1437" dy="16" x="86"><tspan id="SvgjsTspan1438" style="text-decoration:;">obj</tspan></tspan></text></g></g><g id="SvgjsG1439" transform="translate(116,517)"><path id="SvgjsPath1440" d="M 0 0L 172 0L 172 20L 0 20Z" stroke="rgba(50,50,50,1)" stroke-width="2" fill-opacity="1" fill="#ffffff"></path><g id="SvgjsG1441"><text id="SvgjsText1442" font-family="微软雅黑" text-anchor="middle" font-size="13px" width="152px" fill="#323232" font-weight="400" align="middle" anchor="middle" family="微软雅黑" size="13px" weight="400" font-style="" opacity="1" y="0.050000000000000044" transform="rotate(0)"><tspan id="SvgjsTspan1443" dy="16" x="86"><tspan id="SvgjsTspan1444" style="text-decoration:;">obj</tspan></tspan></text></g></g><g id="SvgjsG1445" transform="translate(116,537)"><path id="SvgjsPath1446" d="M 0 0L 172 0L 172 20L 0 20Z" stroke="rgba(50,50,50,1)" stroke-width="2" fill-opacity="1" fill="#ffffff"></path><g id="SvgjsG1447"><text id="SvgjsText1448" font-family="微软雅黑" text-anchor="middle" font-size="13px" width="152px" fill="#323232" font-weight="400" align="middle" anchor="middle" family="微软雅黑" size="13px" weight="400" font-style="" opacity="1" y="0.050000000000000044" transform="rotate(0)"><tspan id="SvgjsTspan1449" dy="16" x="86"><tspan id="SvgjsTspan1450" style="text-decoration:;">obj</tspan></tspan></text></g></g><g id="SvgjsG1451" transform="translate(101,471)"><path id="SvgjsPath1452" d="M 0 0L 47 0L 47 26L 0 26Z" stroke="none" fill="none"></path><g id="SvgjsG1453"><text id="SvgjsText1454" font-family="微软雅黑" text-anchor="middle" font-size="13px" width="47px" fill="#323232" font-weight="700" align="middle" anchor="middle" family="微软雅黑" size="13px" weight="700" font-style="" opacity="1" y="3.05" transform="rotate(0)"><tspan id="SvgjsTspan1455" dy="16" x="23.5"><tspan id="SvgjsTspan1456" style="text-decoration:;">Queue</tspan></tspan></text></g></g><g id="SvgjsG1457" transform="translate(156.75,645)"><path id="SvgjsPath1458" d="M 0 0L 90.5 0L 90.5 37L 0 37Z" stroke="rgba(50,50,50,1)" stroke-width="2" fill-opacity="1" fill="#ffffff"></path><g id="SvgjsG1459"><text id="SvgjsText1460" font-family="微软雅黑" text-anchor="middle" font-size="13px" width="71px" fill="#323232" font-weight="400" align="middle" anchor="middle" family="微软雅黑" size="13px" weight="400" font-style="" opacity="1" y="8.55" transform="rotate(0)"><tspan id="SvgjsTspan1461" dy="16" x="45.5"><tspan id="SvgjsTspan1462" style="text-decoration:;">Pop</tspan></tspan></text></g></g><g id="SvgjsG1463" transform="translate(621,456)"><path id="SvgjsPath1464" d="M 0 0L 280 0L 280 204L 0 204Z" stroke="rgba(50,50,50,1)" stroke-width="2" fill-opacity="1" fill="#ffffff"></path><g id="SvgjsG1465"><text id="SvgjsText1466" font-family="微软雅黑" text-anchor="middle" font-size="13px" width="260px" fill="#323232" font-weight="400" align="middle" anchor="middle" family="微软雅黑" size="13px" weight="400" font-style="" opacity="1" y="92.05" transform="rotate(0)"></text></g></g><g id="SvgjsG1467"><path id="SvgjsPath1468" d="M463 72L463 153L202 153L202 274" stroke="#323232" stroke-width="2" fill="none" marker-end="url(#SvgjsMarker1469)"></path><rect id="SvgjsRect1471" width="295" height="16" x="315.5" y="104.49999999999997" fill="#ffffff"></rect><text id="SvgjsText1472" font-family="微软雅黑" text-anchor="middle" font-size="13px" width="295px" fill="#323232" font-weight="400" align="top" anchor="middle" family="微软雅黑" size="13px" weight="400" font-style="" opacity="1" y="102.54999999999997" transform="rotate(0)"><tspan id="SvgjsTspan1473" dy="16" x="463"><tspan id="SvgjsTspan1474" style="text-decoration:;">Watch Event Type：Added，Updated，Deleted</tspan></tspan></text></g><g id="SvgjsG1475"><path id="SvgjsPath1476" d="M202 325L202 361L202 361L202 397" stroke="#323232" stroke-width="2" fill="none" marker-end="url(#SvgjsMarker1477)"></path><rect id="SvgjsRect1479" width="57" height="16" x="173.5" y="338" fill="#ffffff"></rect><text id="SvgjsText1480" font-family="微软雅黑" text-anchor="middle" font-size="13px" width="57px" fill="#323232" font-weight="400" align="top" anchor="middle" family="微软雅黑" size="13px" weight="400" font-style="" opacity="1" y="336.05" transform="rotate(0)"><tspan id="SvgjsTspan1481" dy="16" x="202"><tspan id="SvgjsTspan1482" style="text-decoration:;">producer</tspan></tspan></text></g><g id="SvgjsG1483"><path id="SvgjsPath1484" d="M202 431L202 464L202 464L202 497" stroke="#323232" stroke-width="2" fill="none" marker-end="url(#SvgjsMarker1485)"></path></g><g id="SvgjsG1487"><path id="SvgjsPath1488" d="M202 557L202 601L202 601L202 645" stroke="#323232" stroke-width="2" fill="none" marker-end="url(#SvgjsMarker1489)"></path><rect id="SvgjsRect1491" width="61" height="16" x="171.5" y="606" fill="#ffffff"></rect><text id="SvgjsText1492" font-family="微软雅黑" text-anchor="middle" font-size="13px" width="61px" fill="#323232" font-weight="400" align="top" anchor="middle" family="微软雅黑" size="13px" weight="400" font-style="" opacity="1" y="604.05" transform="rotate(0)"><tspan id="SvgjsTspan1493" dy="16" x="202"><tspan id="SvgjsTspan1494" style="text-decoration:;">consumer</tspan></tspan></text></g><g id="SvgjsG1495" transform="translate(440,588)"><path id="SvgjsPath1496" d="M 0 0L 127 0L 127 44L 0 44Z" stroke="rgba(50,50,50,1)" stroke-width="2" fill-opacity="1" fill="#ffffff"></path><g id="SvgjsG1497"><text id="SvgjsText1498" font-family="微软雅黑" text-anchor="middle" font-size="13px" width="107px" fill="#323232" font-weight="400" align="middle" anchor="middle" family="微软雅黑" size="13px" weight="400" font-style="" opacity="1" y="12.05" transform="rotate(0)"><tspan id="SvgjsTspan1499" dy="16" x="63.5"><tspan id="SvgjsTspan1500" style="text-decoration:;">HandleDeltas</tspan></tspan></text></g></g><g id="SvgjsG1501"><path id="SvgjsPath1502" d="M247.25 663.5L343.625 663.5L343.625 610L440 610" stroke="#323232" stroke-width="2" fill="none" marker-end="url(#SvgjsMarker1503)"></path></g><g id="SvgjsG1505" transform="translate(440,660)"><path id="SvgjsPath1506" d="M 0 0L 127 0L 127 44L 0 44Z" stroke="rgba(50,50,50,1)" stroke-width="2" fill-opacity="1" fill="#ffffff"></path><g id="SvgjsG1507"><text id="SvgjsText1508" font-family="微软雅黑" text-anchor="middle" font-size="13px" width="107px" fill="#323232" font-weight="400" align="middle" anchor="middle" family="微软雅黑" size="13px" weight="400" font-style="" opacity="1" y="12.05" transform="rotate(0)"><tspan id="SvgjsTspan1509" dy="16" x="63.5"><tspan id="SvgjsTspan1510" style="text-decoration:;">distribute</tspan></tspan></text></g></g><g id="SvgjsG1511"><path id="SvgjsPath1512" d="M503.5 632L503.5 646L503.5 646L503.5 660" stroke="#323232" stroke-width="2" fill="none" marker-end="url(#SvgjsMarker1513)"></path></g><g id="SvgjsG1515" transform="translate(295.5,752)"><path id="SvgjsPath1516" d="M 0 0L 118 0L 118 30L 0 30Z" stroke="rgba(50,50,50,1)" stroke-width="2" fill-opacity="1" fill="#ffffff"></path><g id="SvgjsG1517"><text id="SvgjsText1518" font-family="微软雅黑" text-anchor="middle" font-size="13px" width="98px" fill="#323232" font-weight="400" align="middle" anchor="middle" family="微软雅黑" size="13px" weight="400" font-style="" opacity="1" y="5.05" transform="rotate(0)"><tspan id="SvgjsTspan1519" dy="16" x="59"><tspan id="SvgjsTspan1520" style="text-decoration:;">Listerner</tspan></tspan></text></g></g><g id="SvgjsG1521" transform="translate(443,752)"><path id="SvgjsPath1522" d="M 0 0L 118 0L 118 30L 0 30Z" stroke="rgba(50,50,50,1)" stroke-width="2" fill-opacity="1" fill="#ffffff"></path><g id="SvgjsG1523"><text id="SvgjsText1524" font-family="微软雅黑" text-anchor="middle" font-size="13px" width="98px" fill="#323232" font-weight="400" align="middle" anchor="middle" family="微软雅黑" size="13px" weight="400" font-style="" opacity="1" y="5.05" transform="rotate(0)"><tspan id="SvgjsTspan1525" dy="16" x="59"><tspan id="SvgjsTspan1526" style="text-decoration:;">Listerner</tspan></tspan></text></g></g><g id="SvgjsG1527" transform="translate(593.5,752)"><path id="SvgjsPath1528" d="M 0 0L 118 0L 118 30L 0 30Z" stroke="rgba(50,50,50,1)" stroke-width="2" fill-opacity="1" fill="#ffffff"></path><g id="SvgjsG1529"><text id="SvgjsText1530" font-family="微软雅黑" text-anchor="middle" font-size="13px" width="98px" fill="#323232" font-weight="400" align="middle" anchor="middle" family="微软雅黑" size="13px" weight="400" font-style="" opacity="1" y="5.05" transform="rotate(0)"><tspan id="SvgjsTspan1531" dy="16" x="59"><tspan id="SvgjsTspan1532" style="text-decoration:;">Listerner</tspan></tspan></text></g></g><g id="SvgjsG1533"><path id="SvgjsPath1534" d="M469 704C 469 750.3624848341847 363.5 705.6375151658153 363.5 752" stroke="#323232" stroke-width="2" fill="none" marker-end="url(#SvgjsMarker1535)"></path></g><g id="SvgjsG1537"><path id="SvgjsPath1538" d="M503.5 704C 503.5 723.2093727122985 502 732.7906272877015 502 752" stroke="#323232" stroke-width="2" fill="none" marker-end="url(#SvgjsMarker1539)"></path></g><g id="SvgjsG1541"><path id="SvgjsPath1542" d="M536 704C 536 754.4003968238346 652.5 701.5996031761654 652.5 752" stroke="#323232" stroke-width="2" fill="none" marker-end="url(#SvgjsMarker1543)"></path></g><g id="SvgjsG1545" transform="translate(659,491)"><path id="SvgjsPath1546" d="M 0 0L 162 0L 162 35L 0 35Z" stroke="rgba(50,50,50,1)" stroke-width="2" fill-opacity="1" fill="#ffffff"></path><g id="SvgjsG1547"><text id="SvgjsText1548" font-family="微软雅黑" text-anchor="middle" font-size="13px" width="142px" fill="#323232" font-weight="400" align="middle" anchor="middle" family="微软雅黑" size="13px" weight="400" font-style="" opacity="1" y="7.55" transform="rotate(0)"><tspan id="SvgjsTspan1549" dy="16" x="81"><tspan id="SvgjsTspan1550" style="text-decoration:;">Add，Update，Delete</tspan></tspan></text></g></g><g id="SvgjsG1551"><path id="SvgjsPath1552" d="M567 610L602 610L602 508.5L659 508.5" stroke="#323232" stroke-width="2" fill="none" marker-end="url(#SvgjsMarker1553)"></path></g><g id="SvgjsG1555" transform="translate(617,456)"><path id="SvgjsPath1556" d="M 0 0L 97.5 0L 97.5 28L 0 28Z" stroke="none" fill="none"></path><g id="SvgjsG1557"><text id="SvgjsText1558" font-family="微软雅黑" text-anchor="middle" font-size="20px" width="98px" fill="#323232" font-weight="700" align="middle" anchor="middle" family="微软雅黑" size="20px" weight="700" font-style="" opacity="1" y="-1.5" transform="rotate(0)"><tspan id="SvgjsTspan1559" dy="25" x="49"><tspan id="SvgjsTspan1560" style="text-decoration:;">Indexer</tspan></tspan></text></g></g><g id="SvgjsG1561" transform="translate(718,581)"><path id="SvgjsPath1562" d="M 0 0L 172 0L 172 20L 0 20Z" stroke="rgba(50,50,50,1)" stroke-width="2" fill-opacity="1" fill="#ffffff"></path><g id="SvgjsG1563"><text id="SvgjsText1564" font-family="微软雅黑" text-anchor="middle" font-size="13px" width="152px" fill="#323232" font-weight="400" align="middle" anchor="middle" family="微软雅黑" size="13px" weight="400" font-style="" opacity="1" y="0.050000000000000044" transform="rotate(0)"><tspan id="SvgjsTspan1565" dy="16" x="86"><tspan id="SvgjsTspan1566" style="text-decoration:;">obj</tspan></tspan></text></g></g><g id="SvgjsG1567" transform="translate(718,601)"><path id="SvgjsPath1568" d="M 0 0L 172 0L 172 20L 0 20Z" stroke="rgba(50,50,50,1)" stroke-width="2" fill-opacity="1" fill="#ffffff"></path><g id="SvgjsG1569"><text id="SvgjsText1570" font-family="微软雅黑" text-anchor="middle" font-size="13px" width="152px" fill="#323232" font-weight="400" align="middle" anchor="middle" family="微软雅黑" size="13px" weight="400" font-style="" opacity="1" y="0.050000000000000044" transform="rotate(0)"><tspan id="SvgjsTspan1571" dy="16" x="86"><tspan id="SvgjsTspan1572" style="text-decoration:;">obj</tspan></tspan></text></g></g><g id="SvgjsG1573" transform="translate(718,621)"><path id="SvgjsPath1574" d="M 0 0L 172 0L 172 20L 0 20Z" stroke="rgba(50,50,50,1)" stroke-width="2" fill-opacity="1" fill="#ffffff"></path><g id="SvgjsG1575"><text id="SvgjsText1576" font-family="微软雅黑" text-anchor="middle" font-size="13px" width="152px" fill="#323232" font-weight="400" align="middle" anchor="middle" family="微软雅黑" size="13px" weight="400" font-style="" opacity="1" y="0.050000000000000044" transform="rotate(0)"><tspan id="SvgjsTspan1577" dy="16" x="86"><tspan id="SvgjsTspan1578" style="text-decoration:;">obj</tspan></tspan></text></g></g><g id="SvgjsG1579"><path id="SvgjsPath1580" d="M740 526L740 553.5L804 553.5L804 581" stroke="#323232" stroke-width="2" fill="none" marker-end="url(#SvgjsMarker1581)"></path></g><g id="SvgjsG1583" transform="translate(674,557)"><path id="SvgjsPath1584" d="M 0 0L 113 0L 113 24L 0 24Z" stroke="none" fill="none"></path><g id="SvgjsG1585"><text id="SvgjsText1586" font-family="微软雅黑" text-anchor="middle" font-size="13px" width="113px" fill="#323232" font-weight="700" align="middle" anchor="middle" family="微软雅黑" size="13px" weight="700" font-style="" opacity="1" y="2.05" transform="rotate(0)"><tspan id="SvgjsTspan1587" dy="16" x="56.5"><tspan id="SvgjsTspan1588" style="text-decoration:;">TheadSafeStore</tspan></tspan></text></g></g><g id="SvgjsG1589"><path id="SvgjsPath1590" d="M288 414L862 414L862 581" stroke="#323232" stroke-width="2" fill="none" marker-end="url(#SvgjsMarker1591)"></path></g><g id="SvgjsG1593" transform="translate(441,380)"><path id="SvgjsPath1594" d="M 0 0L 346 0L 346 31L 0 31Z" stroke="none" fill="none"></path><g id="SvgjsG1595"><text id="SvgjsText1596" font-family="微软雅黑" text-anchor="middle" font-size="13px" width="346px" fill="#323232" font-weight="400" align="middle" anchor="middle" family="微软雅黑" size="13px" weight="400" font-style="" opacity="1" y="5.55" transform="rotate(0)"><tspan id="SvgjsTspan1597" dy="16" x="173"><tspan id="SvgjsTspan1598" style="text-decoration:;">Delete will GetByKey form ThreadSafeStrore</tspan></tspan></text></g></g></svg>