<?xml version="1.0" encoding="UTF-8" standalone="no"?>
<!-- Created with Inkscape (http://www.inkscape.org/) -->
<svg xmlns:dc="http://purl.org/dc/elements/1.1/" xmlns:cc="http://web.resource.org/cc/" xmlns:rdf="http://www.w3.org/1999/02/22-rdf-syntax-ns#" xmlns:svg="http://www.w3.org/2000/svg" xmlns="http://www.w3.org/2000/svg" xmlns:sodipodi="http://sodipodi.sourceforge.net/DTD/sodipodi-0.dtd" xmlns:inkscape="http://www.inkscape.org/namespaces/inkscape" width="400" height="400" id="svg3956" sodipodi:version="0.32" inkscape:version="0.45.1" version="1.0" sodipodi:docbase="/home/cburnett/wikipedia/images/electronics" sodipodi:docname="SIMD.svg" inkscape:output_extension="org.inkscape.output.svg.inkscape">
  <defs id="defs3958">
    <marker inkscape:stockid="TriangleInM" orient="auto" refY="0.0" refX="0.0" id="TriangleInM)
      <path id="path3231" d="M 5.77,0.0 L -2.88,5.0 L -2.88,-5.0 L 5.77,0.0 z )
    </marker>
    <marker inkscape:stockid="TriangleOutM" orient="auto" refY="0.0" refX="0.0" id="TriangleOutM)
      <path id="path3240" d="M 5.77,0.0 L -2.88,5.0 L -2.88,-5.0 L 5.77,0.0 z )
    </marker>
  </defs>
  <sodipodi:namedview id="base" pagecolor="#ffffff" bordercolor="#666666" borderopacity="1.0" gridtolerance="10000" guidetolerance="10" objecttolerance="10" inkscape:pageopacity="0.0" inkscape:pageshadow="2" inkscape:zoom="1" inkscape:cx="206.29125" inkscape:cy="179.23368" inkscape:document-units="px" inkscape:current-layer="layer1" width="400px" height="400px" showgrid="true" inkscape:grid-points="true" inkscape:window-width="923" inkscape:window-height="965" inkscape:window-x="0" inkscape:window-y="31"/>
  <metadata id="metadata3961">
    <rdf:RDF>
      <cc:Work rdf:about="">
        <dc:format>image/svg+xml</dc:format>
        <dc:type rdf:resource="http://purl.org/dc/dcmitype/StillImage"/>
      </cc:Work>
    </rdf:RDF>
  </metadata>
  <g inkscape:label="Layer 1" inkscape:groupmode="layer" id="layer1">
    <rect style="opacity:1;fill:#ccccff;fill-opacity:1;fill-rule:nonzero;stroke:#000000;stroke-width:2;stroke-linecap:round;stroke-linejoin:round;stroke-miterlimit:4;stroke-dasharray:none;stroke-dashoffset:0;stroke-opacity:1" id="rect3964" width="40" height="289.65909" x="20" y="90.340912"/>
    <text xml:space="preserve)
    <rect style="opacity:1;fill:#ccffcc;fill-opacity:1;fill-rule:nonzero;stroke:#000000;stroke-width:2;stroke-linecap:round;stroke-linejoin:round;stroke-miterlimit:4;stroke-dasharray:none;stroke-dashoffset:0;stroke-opacity:1" id="rect3970" width="40" height="289.65909" x="20" y="-380" transform="matrix(0,1,-1,0,0,0)"/>
    <text xml:space="preserve)
    <g id="g4023" transform="translate(90.17046,-25)">
      <rect y="130" x="120" height="50" width="50" id="rect3976)
      <text sodipodi:linespacing="125%" id="text3978" y="165.00781" x="144.84961)
    </g>
    <g id="g4028" transform="translate(90.17046,-20)">
      <rect y="200" x="120" height="50" width="50" id="rect3989)
      <text sodipodi:linespacing="125%" id="text3991" y="235.00781" x="144.84961)
    </g>
    <g id="g4033" transform="translate(90.17046,-10)">
      <rect y="265" x="120" height="50" width="50" id="rect3997)
      <text sodipodi:linespacing="125%" id="text3999" y="300.00781" x="144.84961)
    </g>
    <g id="g4038" transform="translate(90.17046,0)">
      <rect y="330" x="120" height="50" width="50" id="rect4005)
      <text sodipodi:linespacing="125%" id="text4007" y="365.00781" x="144.84961)
    </g>
    <path style="fill:none;fill-opacity:0.75;fill-rule:evenodd;stroke:#000000;stroke-width:2;stroke-linecap:butt;stroke-linejoin:miter;stroke-miterlimit:4;stroke-dasharray:none;stroke-opacity:1" d="M 290,70 L 290,355" id="path4411"/>
    <g id="g5838">
      <path style="fill:#000000;fill-opacity:1;fill-rule:evenodd;stroke:none;stroke-width:2;stroke-linecap:butt;stroke-linejoin:miter;stroke-miterlimit:4;stroke-dasharray:none;stroke-opacity:1" d="M 270,354 L 270,356 L 290,356 L 290,354 L 270,354 z " id="path4413"/>
      <path style="fill-rule:evenodd;stroke:#000000;stroke-width:0.4pt;marker-start:none" d="M 265.384,355 L 272.304,351 L 272.304,359 L 265.384,355 z " id="path5844"/>
    </g>
    <g id="g5830">
      <path style="fill:#000000;fill-opacity:1;fill-rule:evenodd;stroke:none;stroke-width:2;stroke-linecap:butt;stroke-linejoin:miter;stroke-miterlimit:4;stroke-dasharray:none;stroke-opacity:1" d="M 270,279 L 270,281 L 290,281 L 290,279 L 270,279 z " id="path4415"/>
      <path style="fill-rule:evenodd;stroke:#000000;stroke-width:0.4pt;marker-start:none" d="M 265.384,280 L 272.304,276 L 272.304,284 L 265.384,280 z " id="path5836"/>
    </g>
    <g id="g5822">
      <path style="fill:#000000;fill-opacity:1;fill-rule:evenodd;stroke:none;stroke-width:2;stroke-linecap:butt;stroke-linejoin:miter;stroke-miterlimit:4;stroke-dasharray:none;stroke-opacity:1" d="M 270,204 L 270,206 L 290,206 L 290,204 L 270,204 z " id="path4417"/>
      <path style="fill-rule:evenodd;stroke:#000000;stroke-width:0.4pt;marker-start:none" d="M 265.384,205 L 272.304,201 L 272.304,209 L 265.384,205 z " id="path5828"/>
    </g>
    <g id="g5814">
      <path style="fill:#000000;fill-opacity:1;fill-rule:evenodd;stroke:none;stroke-width:2;stroke-linecap:butt;stroke-linejoin:miter;stroke-miterlimit:4;stroke-dasharray:none;stroke-opacity:1" d="M 270,129 L 270,131 L 290,131 L 290,129 L 270,129 z " id="path4419"/>
      <path style="fill-rule:evenodd;stroke:#000000;stroke-width:0.4pt;marker-start:none" d="M 265.384,130 L 272.304,126 L 272.304,134 L 265.384,130 z " id="path5820"/>
    </g>
    <g id="g5846">
      <path style="fill:#000000;fill-opacity:1;fill-rule:evenodd;stroke:none;stroke-width:2;stroke-linecap:butt;stroke-linejoin:miter;stroke-miterlimit:4;stroke-dasharray:none;stroke-opacity:1" d="M 65,354 L 65,356 L 200,356 L 200,354 L 65,354 z " id="path4444"/>
      <path style="fill-rule:evenodd;stroke:#000000;stroke-width:0.4pt;marker-start:none" d="M 204.616,355 L 197.696,359 L 197.696,351 L 204.616,355 z " id="path5852"/>
    </g>
    <g id="g5854">
      <path style="fill:#000000;fill-opacity:1;fill-rule:evenodd;stroke:none;stroke-width:2;stroke-linecap:butt;stroke-linejoin:miter;stroke-miterlimit:4;stroke-dasharray:none;stroke-opacity:1" d="M 65,279 L 65,281 L 200,281 L 200,279 L 65,279 z " id="path4448"/>
      <path style="fill-rule:evenodd;stroke:#000000;stroke-width:0.4pt;marker-start:none" d="M 204.616,280 L 197.696,284 L 197.696,276 L 204.616,280 z " id="path5860"/>
    </g>
    <g id="g5862">
      <path style="fill:#000000;fill-opacity:1;fill-rule:evenodd;stroke:none;stroke-width:2;stroke-linecap:butt;stroke-linejoin:miter;stroke-miterlimit:4;stroke-dasharray:none;stroke-opacity:1" d="M 65,204 L 65,206 L 200,206 L 200,204 L 65,204 z " id="path4450"/>
      <path style="fill-rule:evenodd;stroke:#000000;stroke-width:0.4pt;marker-start:none" d="M 204.616,205 L 197.696,209 L 197.696,201 L 204.616,205 z " id="path5868"/>
    </g>
    <g id="g5801">
      <path style="fill:#000000;fill-opacity:1;fill-rule:evenodd;stroke:none;stroke-width:2;stroke-linecap:butt;stroke-linejoin:miter;stroke-miterlimit:4;stroke-dasharray:none;stroke-opacity:1" d="M 65,129 L 65,131 L 200,131 L 200,129 L 65,129 z " id="path4452"/>
      <path style="fill-rule:evenodd;stroke:#000000;stroke-width:0.4pt;marker-start:none" d="M 204.616,130 L 197.696,134 L 197.696,126 L 204.616,130 z " id="path5807"/>
    </g>
    <text xml:space="preserve)
  </g>
</svg>
